<svg xmlns="http://www.w3.org/2000/svg" version="1.1" viewBox="-5.0 -10.0 110.0 135.0">
 <path d="m69.445 16.668c0-1.5273 1.25-2.7773 2.7773-2.7773h5.5547c1.5273 0 2.7773 1.25 2.7773 2.7773 0 1.5273-1.25 2.7773-2.7773 2.7773h-5.5547c-1.5273 0-2.7773-1.25-2.7773-2.7773zm13.887-2.7773c1.5273 0 2.7773-1.25 2.7773-2.7773v-5.5547c0-1.5273-1.25-2.7773-2.7773-2.7773-1.5273 0-2.7773 1.25-2.7773 2.7773v5.5547c0 1.5273 1.25 2.7773 2.7773 2.7773zm2.7773 11.109v6.25c0 2.7773-1.082 5.3906-3.0273 7.3594-2 1.9727-4.6094 3.0547-7.3906 3.0547-4.918 0-9.2227-3.5273-10.195-8.3594l-0.10938-0.44531c-0.27734-1.4727-1.0273-2.75-2.1406-3.668-1.1406-0.94531-2.5-1.418-3.9727-1.418-2.6953 0-5.082 1.7227-5.918 4.25l-0.94531 2.832c10.168 5.7227 17.027 16.582 17.027 29.027 0 18.391-14.945 33.332-33.332 33.332-18.383 0.007812-33.328-14.938-33.328-33.324 0-18.391 14.945-33.332 33.332-33.332 3.9453 0 7.7227 0.72266 11.223 2l0.75-2.25c1.6094-4.832 6.082-8.082 11.195-8.082 2.75 0 5.418 0.97266 7.5 2.6953 2.082 1.7227 3.5273 4.1406 4.0547 6.8047l0.10938 0.41797c0.47266 2.3594 2.418 3.9727 4.75 3.9727 1.3047 0 2.5273-0.5 3.4727-1.418 0.89063-0.91797 1.3906-2.1406 1.3906-3.4453v-6.25c0-1.5273 1.25-2.7773 2.7773-2.7773 1.5273 0 2.7773 1.25 2.7773 2.7773zm-53.859 16.832c-0.47266-1.4727-2.0273-2.3047-3.4727-1.8594-7.1406 2.1953-12.891 7.418-15.75 14.277-0.60938 1.418 0.054687 3.0547 1.4727 3.6406 0.35938 0.16797 0.72266 0.22266 1.082 0.22266 1.082 0 2.1094-0.64062 2.5547-1.6953 2.25-5.3594 6.7227-9.418 12.25-11.109 1.4727-0.47266 2.3047-2.0273 1.8594-3.4727zm62.195-27.941h-5.5547c-1.5273 0-2.7773 1.25-2.7773 2.7773 0 1.5273 1.25 2.7773 2.7773 2.7773h5.5547c1.5273 0 2.7773-1.25 2.7773-2.7773 0-1.5273-1.25-2.7773-2.7773-2.7773z"/>
<text x="0.0" y="117.5" font-size="5.0" font-weight="bold" font-family="Arbeit Regular, Helvetica, Arial-Unicode, Arial, Sans-serif" fill="#000000">Created by Humam</text><text x="0.0" y="122.5" font-size="5.0" font-weight="bold" font-family="Arbeit Regular, Helvetica, Arial-Unicode, Arial, Sans-serif" fill="#000000">from Noun Project</text></svg>